# xmcd
#
# Track frame offsets: 
#        150
#        14718
#        30936
#        44020
#        52452
#        62000
#        75874
#        87231
#        98921
#        114704
#        126717
#        143760
#        156054
#        166985
#        189888
#        209703
#        221690
#        241099
#        257768
#        267938
#
# Disc length: 3729 seconds
#
# Revision: 0
# Processed by: cddbd v1.5.2PL0 Copyright (c) Steve Scherf et al.
# Submitted via: ExactAudioCopy v0.99pb4
#
DISCID=230e8f14
DTITLE=Various Artist - American Poster
DYEAR=2000
DGENRE=Folk
TTITLE0=Downhill - Where the sweet water flow
TTITLE1=Deliverence - Can't you hear me calling
TTITLE2=Strindberg - Deep river blues
TTITLE3=Weeds - Hallelujah(I'm ready)
TTITLE4=High note grabbers - Rock that cradle Joe
TTITLE5=Cut away - Fare thee well
TTITLE6=Kaggar och sugrör - Go my way
TTITLE7=Steamboat entertainers - Rockingham Cindy
TTITLE8=High on grass - White dove
TTITLE9=Weeds - Tennessee
TTITLE10=Chico's jugband - Maxwell street blues
TTITLE11=Kaggar och sugrör - Hard times
TTITLE12=Downhill - Crazy heart
TTITLE13=Cut away - He rode all the way to Texas
TTITLE14=Steamboat entertainers - All night long
TTITLE15=High on grass - Little Maggie
TTITLE16=Chico's jugband - Rising sun blues
TTITLE17=Deliverence - Long black veil
TTITLE18=High note grabbers - Spotted pony
TTITLE19=Strindberg - Walk on boy
EXTD=
EXTT0=
EXTT1=
EXTT2=
EXTT3=
EXTT4=
EXTT5=
EXTT6=
EXTT7=
EXTT8=
EXTT9=
EXTT10=
EXTT11=
EXTT12=
EXTT13=
EXTT14=
EXTT15=
EXTT16=
EXTT17=
EXTT18=
EXTT19=
PLAYORDER=
